<svg width="539" height="341" viewBox="0 0 539 341" fill="none" xmlns="http://www.w3.org/2000/svg">
<path d="M317.5 43.0607C311.543 31.9955 316.578 8.22561 339.62 6.54529C345.258 28.5502 327.919 40.235 317.5 43.0607Z" fill="#83FF90"/>
<path d="M344.87 5.20036C348.143 17.976 344.729 28.1541 338.774 35.4284C333.008 42.4723 325.021 46.6363 318.919 48.2913L314.767 49.4172L312.728 45.6298C308.825 38.3805 308.773 27.8738 312.745 19.0577C316.887 9.86091 325.559 2.13712 339.226 1.14036L343.745 0.810547L344.87 5.20036ZM339.62 6.54529C316.939 8.19938 311.705 31.2578 317.229 42.5326L317.5 43.0607C327.919 40.235 345.258 28.5502 339.62 6.54529Z" fill="url(#paint0_linear_191_139)"/>
<path d="M321.109 47.1562C324.695 41.9173 337.606 32.0777 353.003 47.53C338.9 59.9152 324.601 49.5473 321.109 47.1562Z" fill="#83FF90"/>
<path d="M356.578 51.6019C348.021 59.1167 339.059 59.8396 331.849 58.163C324.956 56.5599 319.733 52.7821 318.047 51.6278L313.575 48.5668L316.637 44.0948C319.043 40.5807 324.267 35.8113 331.507 34.2817C339.205 32.6556 348.08 34.9116 356.842 43.7046L360.915 47.7939L356.578 51.6019ZM353.003 47.53C337.847 32.3195 325.1 41.6156 321.284 46.9071L321.109 47.1562C324.601 49.5473 338.9 59.9152 353.003 47.53Z" fill="url(#paint1_linear_191_139)"/>
<path d="M408.655 68.8941C419.63 59.4597 436.622 67.1782 436.737 81.6498L437.356 159.287C437.409 165.906 441.298 171.892 447.325 174.63L528.057 211.301C544.331 218.693 539.637 242.97 521.781 243.763L454.435 246.753C445.296 247.159 438.116 254.724 438.189 263.872L438.664 323.447C438.793 339.593 418.452 346.807 408.379 334.188L347.945 258.482C344.553 254.234 339.335 251.863 333.905 252.105L237.131 256.402C221 257.118 213.05 237.053 225.294 226.527L270.472 187.689C277.409 181.725 278.382 171.341 272.675 164.192L230.618 111.507C219.468 97.5384 234.662 78.0313 250.935 85.4232L331.668 122.095C337.694 124.832 344.762 123.823 349.781 119.508L408.655 68.8941Z" fill="white"/>
<path d="M66.8798 103.663C68.5677 90.6791 83.6821 84.3968 94.0758 92.3586L131.135 120.746C135.958 124.441 142.387 125.281 147.997 122.949L187.493 106.532C204.708 99.3773 219.224 121.145 206.003 134.287L194.913 145.311C187.61 152.569 188.386 164.602 196.559 170.863L209.906 181.087C222.769 190.94 215.864 211.494 199.661 211.582L134.804 211.936C130.345 211.961 126.075 213.736 122.912 216.879L76.9128 262.602C65.4212 274.025 45.9814 264.422 48.0701 248.354L50.2375 231.682C51.5648 221.471 43.5827 212.434 33.2865 212.49L17.6503 212.576C-0.991686 212.678 -6.18176 187.033 11.0327 179.878L50.5285 163.462C56.1391 161.13 60.0786 155.98 60.8618 149.955L66.8798 103.663Z" fill="white"/>
<path d="M352.979 207.155L317.606 133.667L246.6 130.578L274.841 239.936L352.979 207.155Z" fill="url(#paint2_linear_191_139)"/>
<path d="M320.172 129.776L358.409 209.215L272.124 245.413L241.376 126.347L320.172 129.776ZM277.558 234.458L347.548 205.096L315.04 137.559L251.823 134.809L277.558 234.458Z" fill="url(#paint3_linear_191_139)"/>
<path d="M356.018 92.2715C354.001 130.793 321.138 160.385 282.617 158.368C244.095 156.35 214.503 123.487 216.52 84.966C218.538 46.4447 251.401 16.8524 289.922 18.8698C328.444 20.8872 358.036 53.7502 356.018 92.2715Z" fill="url(#paint4_linear_191_139)"/>
<path d="M348.03 91.8533C349.816 57.7443 323.613 28.6452 289.504 26.8588C255.395 25.0725 226.296 51.2755 224.51 85.3845C222.723 119.494 248.926 148.593 283.035 150.379L282.617 158.368L281.715 158.315C243.934 155.856 214.978 123.698 216.479 85.8675L216.52 84.966C218.538 46.4447 251.401 16.8524 289.922 18.8698L290.823 18.9228C328.904 21.401 358.02 54.0511 356.018 92.2715L355.966 93.1725C353.488 131.253 320.837 160.369 282.617 158.368L283.035 150.379C317.144 152.165 346.243 125.962 348.03 91.8533Z" fill="url(#paint5_linear_191_139)"/>
<path d="M209.945 140.533C208.975 164.351 194.147 183.088 176.825 182.383C159.502 181.678 146.246 161.798 147.215 137.98C148.184 114.162 163.013 95.425 180.335 96.13C197.657 96.8349 210.914 116.715 209.945 140.533Z" fill="url(#paint6_linear_191_139)"/>
<path d="M201.951 140.207C202.374 129.804 199.666 120.586 195.343 114.103C191.014 107.611 185.483 104.346 180.01 104.123C174.536 103.901 168.758 106.706 163.916 112.824C159.08 118.934 155.632 127.902 155.208 138.305C154.785 148.708 157.493 157.928 161.816 164.411C166.145 170.902 171.676 174.168 177.15 174.39L176.825 182.383L176.016 182.336C159.092 181.056 146.261 161.426 147.215 137.98C148.184 114.162 163.013 95.425 180.335 96.13C197.657 96.8349 210.914 116.715 209.945 140.533C208.975 164.351 194.147 183.088 176.825 182.383L177.15 174.39C182.624 174.613 188.402 171.808 193.244 165.69C198.079 159.579 201.528 150.611 201.951 140.207Z" fill="url(#paint7_linear_191_139)"/>
<path d="M332.153 96.4407C332.153 108.793 322.139 118.807 309.787 118.807C297.435 118.807 287.421 108.793 287.421 96.4407C287.421 84.0884 297.435 74.0748 309.787 74.0748C322.139 74.0748 332.153 84.0884 332.153 96.4407Z" fill="#5BA7FF"/>
<path d="M274.865 81.5301C274.865 93.8825 264.851 103.896 252.499 103.896C240.146 103.896 230.133 93.8825 230.133 81.5301C230.133 69.1777 240.146 59.1641 252.499 59.1641C264.851 59.1641 274.865 69.1777 274.865 81.5301Z" fill="#5BA7FF"/>
<path d="M283.162 116.292C285.472 124.871 283.613 132.831 279.009 134.07C274.405 135.31 268.801 129.36 266.491 120.78C264.181 112.201 266.04 104.241 270.644 103.001C275.248 101.762 280.852 107.712 283.162 116.292Z" fill="#333333"/>
<path d="M248.026 100.286C248.026 106.528 242.966 111.588 236.725 111.588C230.484 111.588 225.424 106.528 225.424 100.286C225.424 94.0451 230.484 88.9854 236.725 88.9854C242.966 88.9854 248.026 94.0451 248.026 100.286Z" fill="url(#paint8_linear_191_139)"/>
<path d="M317.086 119.121C317.086 125.362 312.026 130.422 305.785 130.422C299.544 130.422 294.484 125.362 294.484 119.121C294.484 112.88 299.544 107.82 305.785 107.82C312.026 107.82 317.086 112.88 317.086 119.121Z" fill="url(#paint9_linear_191_139)"/>
<path d="M214.71 82.3188C217.954 75.3336 228.228 76.5185 229.797 84.059L238.252 124.682C238.954 128.058 241.742 130.604 245.167 130.999L286.791 135.8C294.528 136.692 296.558 146.99 289.738 150.752L253.593 170.691C250.519 172.387 248.909 175.889 249.625 179.326L257.984 219.493C259.56 227.066 250.54 232.245 244.795 227.065L213.578 198.916C211.045 196.632 207.343 196.205 204.356 197.852L167.551 218.155C160.778 221.892 153.172 214.796 156.431 207.78L173.715 170.571C175.194 167.387 174.425 163.611 171.817 161.26L141.16 133.615C135.376 128.4 139.697 118.834 147.434 119.727L189.057 124.527C192.483 124.922 195.777 123.078 197.229 119.95L214.71 82.3188Z" fill="url(#paint10_linear_191_139)"/>
<path d="M214.71 82.3188C217.954 75.3336 228.228 76.5185 229.797 84.059L238.252 124.682C238.933 127.953 241.57 130.444 244.848 130.956L245.167 130.999L286.791 135.8C294.528 136.692 296.558 146.99 289.738 150.752L253.593 170.691C250.519 172.387 248.909 175.889 249.625 179.326L257.984 219.493C259.536 226.948 250.819 232.082 245.067 227.3L244.795 227.065L213.578 198.916C211.045 196.632 207.343 196.205 204.356 197.852L167.551 218.155L167.233 218.323C160.649 221.617 153.456 214.906 156.286 208.109L156.431 207.78L173.715 170.571C175.194 167.387 174.425 163.611 171.817 161.26L141.16 133.615C135.466 128.481 139.564 119.132 147.073 119.692L147.434 119.727L189.057 124.527L189.378 124.558C192.581 124.798 195.62 123.096 197.088 120.24L197.229 119.95L214.71 82.3188ZM204.485 123.321C201.579 129.576 194.992 133.265 188.141 132.475L146.517 127.674L177.175 155.318C182.389 160.02 183.928 167.573 180.97 173.941L163.687 211.15L200.492 190.847C206.464 187.552 213.869 188.406 218.935 192.974L250.152 221.123L241.793 180.956C240.362 174.082 243.58 167.078 249.728 163.686L285.875 143.748L244.25 138.947C237.399 138.156 231.825 133.064 230.419 126.312L221.965 85.689L204.485 123.321Z" fill="url(#paint11_linear_191_139)"/>
<path d="M295.935 204.378C284.303 223.428 263.627 232.005 249.756 223.534C235.884 215.064 234.069 192.754 245.702 173.704C257.335 154.654 278.01 146.077 291.881 154.548C305.753 163.018 307.568 185.328 295.935 204.378Z" fill="url(#paint12_linear_191_139)"/>
<path d="M289.107 200.209C294.136 191.972 296.081 183.301 295.499 176.144C294.916 168.978 291.929 163.95 287.712 161.375C283.495 158.8 277.658 158.441 271.017 161.195C264.385 163.947 257.559 169.637 252.53 177.874C247.5 186.11 245.556 194.781 246.139 201.938C246.722 209.104 249.709 214.131 253.925 216.706L249.756 223.534C236.101 215.196 234.129 193.448 245.167 174.6L245.702 173.704C257.335 154.654 278.01 146.077 291.881 154.548C305.753 163.018 307.568 185.328 295.935 204.378L295.384 205.263C283.658 223.692 263.411 231.872 249.756 223.534L253.925 216.706C258.142 219.281 263.979 219.642 270.62 216.887C277.252 214.136 284.077 208.445 289.107 200.209Z" fill="url(#paint13_linear_191_139)"/>
<path d="M254.41 78.0837C254.845 77.2507 256.084 77.4225 256.276 78.3422L257.076 82.1817C257.162 82.5954 257.499 82.9102 257.918 82.9682L261.932 83.5245C262.914 83.6606 263.121 84.9892 262.226 85.4171L258.863 87.0258C258.448 87.2245 258.222 87.6811 258.316 88.1319L259.059 91.6979C259.255 92.6386 258.141 93.2874 257.42 92.6527L254.281 89.8914C253.98 89.6267 253.551 89.5672 253.189 89.7401L249.418 91.5439C248.552 91.9586 247.656 91.0312 248.1 90.1793L249.785 86.9497C249.998 86.5415 249.905 86.0406 249.559 85.7365L246.76 83.274C246.016 82.619 246.576 81.3966 247.558 81.5327L251.572 82.0889C251.991 82.1469 252.401 81.9356 252.596 81.5609L254.41 78.0837Z" fill="#FFFB8B"/>
<path d="M303.982 90.8939C304.636 90.2195 305.775 90.7376 305.697 91.6738L305.368 95.582C305.333 96.0031 305.566 96.401 305.951 96.5759L309.64 98.2541C310.542 98.6647 310.361 99.9971 309.382 100.152L305.7 100.735C305.245 100.807 304.898 101.18 304.86 101.639L304.555 105.269C304.474 106.226 303.221 106.53 302.711 105.716L300.491 102.174C300.278 101.835 299.883 101.655 299.487 101.718L295.358 102.371C294.409 102.521 293.815 101.377 294.484 100.687L297.02 98.0723C297.341 97.7418 297.394 97.2351 297.15 96.845L295.17 93.6865C294.643 92.8464 295.528 91.8345 296.431 92.2451L300.12 93.9233C300.505 94.0983 300.958 94.0126 301.252 93.7093L303.982 90.8939Z" fill="#FFFB8B"/>
<defs>
<linearGradient id="paint0_linear_191_139" x1="-183.165" y1="3.73065" x2="397.34" y2="1726.47" gradientUnits="userSpaceOnUse">
<stop offset="0.101096" stop-color="#83FF90"/>
<stop offset="0.617494" stop-color="#437D49"/>
</linearGradient>
<linearGradient id="paint1_linear_191_139" x1="1568.63" y1="-605.059" x2="893.39" y2="1340.27" gradientUnits="userSpaceOnUse">
<stop offset="0.506493" stop-color="#83FF90"/>
<stop offset="0.846413" stop-color="#45814B"/>
<stop offset="1" stop-color="#437D49"/>
</linearGradient>
<linearGradient id="paint2_linear_191_139" x1="652.503" y1="243.097" x2="290.628" y2="-242.47" gradientUnits="userSpaceOnUse">
<stop offset="0.342218" stop-color="white"/>
<stop offset="1" stop-color="#999999"/>
</linearGradient>
<linearGradient id="paint3_linear_191_139" x1="549.112" y1="307.499" x2="304.572" y2="-147.072" gradientUnits="userSpaceOnUse">
<stop offset="0.288461" stop-color="white"/>
<stop offset="1" stop-color="#999999"/>
</linearGradient>
<linearGradient id="paint4_linear_191_139" x1="388.623" y1="23.3897" x2="256.842" y2="350.095" gradientUnits="userSpaceOnUse">
<stop offset="0.649038" stop-color="white"/>
<stop offset="1" stop-color="#FFFB8B"/>
</linearGradient>
<linearGradient id="paint5_linear_191_139" x1="401.726" y1="-0.939576" x2="259.808" y2="350.896" gradientUnits="userSpaceOnUse">
<stop stop-color="white"/>
<stop offset="1" stop-color="#999999"/>
</linearGradient>
<linearGradient id="paint6_linear_191_139" x1="384.335" y1="202.389" x2="291.707" y2="-94.097" gradientUnits="userSpaceOnUse">
<stop stop-color="#FFFB8B"/>
<stop offset="1" stop-color="white"/>
</linearGradient>
<linearGradient id="paint7_linear_191_139" x1="380.337" y1="309.126" x2="333.741" y2="10.3499" gradientUnits="userSpaceOnUse">
<stop stop-color="#999999"/>
<stop offset="1" stop-color="white"/>
</linearGradient>
<linearGradient id="paint8_linear_191_139" x1="392.456" y1="0.810535" x2="224.706" y2="376.722" gradientUnits="userSpaceOnUse">
<stop stop-color="#C9FFCF"/>
<stop offset="1" stop-color="#FFFB8B"/>
</linearGradient>
<linearGradient id="paint9_linear_191_139" x1="392.456" y1="0.810535" x2="224.706" y2="376.722" gradientUnits="userSpaceOnUse">
<stop stop-color="#C9FFCF"/>
<stop offset="1" stop-color="#FFFB8B"/>
</linearGradient>
<linearGradient id="paint10_linear_191_139" x1="425.457" y1="50.2585" x2="255.014" y2="369.562" gradientUnits="userSpaceOnUse">
<stop stop-color="#FFFEDB"/>
<stop offset="1" stop-color="#FFF600"/>
</linearGradient>
<linearGradient id="paint11_linear_191_139" x1="125.349" y1="332.173" x2="220.288" y2="-44.0253" gradientUnits="userSpaceOnUse">
<stop stop-color="#FFE100"/>
<stop offset="1" stop-color="#FFF9CB"/>
</linearGradient>
<linearGradient id="paint12_linear_191_139" x1="530.022" y1="122.563" x2="-2.526" y2="213.781" gradientUnits="userSpaceOnUse">
<stop offset="0.295874" stop-color="white"/>
<stop offset="1" stop-color="#FFFB8B"/>
</linearGradient>
<linearGradient id="paint13_linear_191_139" x1="117.126" y1="273.416" x2="229.58" y2="-100.768" gradientUnits="userSpaceOnUse">
<stop stop-color="#999999"/>
<stop offset="1" stop-color="white"/>
</linearGradient>
</defs>
</svg>
