<svg width="651" height="333" viewBox="0 0 651 333" fill="none" xmlns="http://www.w3.org/2000/svg">
<path d="M133.316 268.347C97.1561 257.114 64.9599 240.636 0.347717 274.452C2.04904 299.025 9.63518 317.689 20.754 332H291.154C312.026 309.419 324.976 282.416 331.716 256.848C352.406 178.356 324.166 79.4085 267.672 51.8529C226.024 83.3891 215.49 141.049 233.378 179.163C202.403 142.128 187.303 61.3461 60.4721 84.0614C27.1245 188.211 102.076 249.275 133.316 268.347Z" fill="white"/>
<path d="M463.518 108.392C386.671 117.117 385.779 195.127 380.699 231.97C381.095 277.347 395.917 309.883 416.9 332.396H639C643.932 326.747 647.912 320.643 650.738 314.139C624.081 281.974 577.647 275.583 547.827 291.212C576.326 265.166 640.331 250.266 617.731 149.739C533.356 126.756 487.204 188.778 473.065 214.405C480.769 185.123 492.802 158.823 463.518 108.392Z" fill="white"/>
<path d="M275.215 324.923L307.988 195.678H385.031L424.98 324.923H275.215Z" fill="url(#paint0_linear_170_103)"/>
<path d="M390.124 188.773L434.343 331.829H266.34L302.615 188.773H390.124ZM307.988 195.678L275.215 324.923H424.98L385.031 195.678H307.988Z" fill="url(#paint1_linear_170_103)"/>
<path d="M318.344 227.452L326.493 244.333C326.827 245.024 327.527 245.463 328.294 245.463H366.425C367.213 245.463 367.928 245 368.25 244.281L375.817 227.4C376.41 226.077 375.442 224.582 373.992 224.582H320.145C318.67 224.582 317.703 226.124 318.344 227.452Z" fill="url(#paint2_linear_170_103)"/>
<path d="M428.336 255.8L385.527 197.478L399.809 242.558C321.052 215.784 326.812 267.797 343.647 276.321C421.855 315.922 446.216 279.321 428.336 255.8Z" fill="url(#paint3_linear_170_103)"/>
<path d="M378.945 199.564L389.265 232.14C375.134 228.4 363.716 227.381 354.61 228.484C342.715 229.925 334.407 235.081 329.927 242.704C325.584 250.096 325.544 258.628 327.624 265.647C329.662 272.521 334.134 279.245 340.528 282.482C380.132 302.536 408.5 304.611 425.229 295.849C433.837 291.339 439.099 284.014 440.461 275.602C441.795 267.37 439.286 258.84 433.903 251.714L391.094 193.393L378.945 199.564ZM428.336 255.8C446.076 279.137 422.233 315.351 345.47 277.235L343.647 276.321C326.812 267.797 321.052 215.784 399.809 242.558L385.527 197.478L428.336 255.8Z" fill="#BBBBBB"/>
<path d="M267.572 251.84L307.533 198.198L295.293 242.208C375.215 206.839 381.093 258.997 353.615 273.441C273.011 315.809 249.691 275.361 267.572 251.84Z" fill="url(#paint4_linear_170_103)"/>
<path d="M314.186 200.049L305.697 230.569C320.166 225.337 332.221 223.108 342.074 223.231C354.832 223.39 364.519 227.551 370.201 234.932C375.859 242.282 376.528 251.524 373.903 259.623C371.279 267.716 365.284 275.109 356.827 279.554C316.036 300.995 287.153 302.943 270.254 293.356C261.598 288.444 256.546 280.674 255.303 272.085C254.082 263.647 256.593 254.899 262.034 247.715L301.995 194.072L314.186 200.049ZM267.572 251.84C249.691 275.361 273.011 315.809 353.615 273.441C381.093 258.997 375.215 206.839 295.293 242.208L307.533 198.198L267.572 251.84Z" fill="#BBBBBB"/>
<path d="M427.463 130.54C427.463 173.5 391.046 208.326 346.125 208.326C301.203 208.326 264.787 173.5 264.787 130.54C264.787 87.5797 301.203 52.7537 346.125 52.7537C391.046 52.7537 427.463 87.5797 427.463 130.54Z" fill="url(#paint5_linear_170_103)"/>
<path d="M427.463 130.54C427.463 87.5797 391.046 52.7537 346.125 52.7537C301.203 52.7537 264.787 87.5797 264.787 130.54C264.787 173.5 301.203 208.326 346.125 208.326C391.046 208.326 427.463 173.5 427.463 130.54ZM434.369 130.54C434.369 177.601 394.566 215.231 346.125 215.231C297.683 215.231 257.881 177.601 257.881 130.54C257.881 83.4785 297.683 45.8485 346.125 45.8484C394.566 45.8484 434.369 83.4784 434.369 130.54Z" fill="url(#paint6_linear_170_103)"/>
<path d="M337.519 224.839C329.481 221.325 315.635 210.081 324.562 193.214C334.856 196.64 340.065 205.005 342.301 211.602C340.57 201.025 341.34 185.603 353.716 179.478C363.028 185.677 360.419 200.506 356.542 210.967C360.123 205.921 367.421 200.735 380.71 200.561C372.36 215.895 364.514 223.136 361.634 224.839H337.519Z" fill="url(#paint7_linear_170_103)"/>
<path d="M374.816 154.93C369.571 161.814 364.045 166.196 358.423 168.553C352.774 170.92 347.238 171.154 342.161 170.069C332.169 167.935 324.073 160.744 319.643 154.93L325.135 150.744C328.985 155.797 335.793 161.647 343.603 163.315C347.428 164.132 351.518 163.959 355.754 162.184C360.016 160.397 364.634 156.9 369.324 150.744L374.816 154.93Z" fill="#333333"/>
<path d="M337.509 115.756C337.509 128.282 327.516 138.436 315.188 138.436C302.861 138.436 292.868 128.282 292.868 115.756C292.868 103.229 302.861 93.0749 315.188 93.0749C327.516 93.0749 337.509 103.229 337.509 115.756Z" fill="#5BA7FF"/>
<path d="M403.031 115.756C403.031 128.282 393.038 138.436 380.71 138.436C368.383 138.436 358.39 128.282 358.39 115.756C358.39 103.229 368.383 93.0749 380.71 93.0749C393.038 93.0749 403.031 103.229 403.031 115.756Z" fill="#5BA7FF"/>
<path d="M315.188 144.917C315.188 152.87 308.741 159.317 300.788 159.317C292.835 159.317 286.387 152.87 286.387 144.917C286.387 136.963 292.835 130.516 300.788 130.516C308.741 130.516 315.188 136.963 315.188 144.917Z" fill="#C9FFCF"/>
<path d="M409.512 144.917C409.512 152.87 403.064 159.317 395.111 159.317C387.158 159.317 380.711 152.87 380.711 144.917C380.711 136.963 387.158 130.516 395.111 130.516C403.064 130.516 409.512 136.963 409.512 144.917Z" fill="#C9FFCF"/>
<path d="M376.829 63.4041C364.427 53.2752 358.781 22.8332 385.095 9.63406C402.449 32.8004 387.722 55.0033 376.829 63.4041Z" fill="#83FF90"/>
<path d="M390.622 5.49374C400.698 18.9437 401.634 32.5912 398.164 44.057C394.804 55.1596 387.427 63.9522 381.048 68.8724L376.707 72.2202L372.461 68.7532C364.336 62.1173 359.158 49.7705 359.541 37.4554C359.941 24.6084 366.391 11.2905 381.999 3.46164L387.16 0.872314L390.622 5.49374ZM385.095 9.63406C359.192 22.6269 364.258 52.3278 376.253 62.9144L376.829 63.4041C387.722 55.0033 402.449 32.8004 385.095 9.63406Z" fill="url(#paint8_linear_170_103)"/>
<path d="M383.073 66.4695C384.745 58.5539 395.157 40.6801 420.812 51.3784C410.236 72.8299 388.35 67.5843 383.073 66.4695Z" fill="#83FF90"/>
<path d="M427.005 54.4321C420.588 67.4479 410.387 72.6633 401.081 74.2C392.182 75.6694 384.193 73.764 381.646 73.2258L374.889 71.7991L376.317 65.042C377.439 59.7325 381.268 51.5723 389.049 46.2455C397.321 40.5823 408.871 38.9167 423.469 45.0044L430.258 47.836L427.005 54.4321ZM420.812 51.3784C395.559 40.8475 385.075 58.0017 383.158 66.0909L383.073 66.4695C388.35 67.5843 410.236 72.8299 420.812 51.3784Z" fill="url(#paint9_linear_170_103)"/>
<path d="M368.587 111.712C368.587 115.49 365.525 118.553 361.747 118.553C357.969 118.553 354.907 115.49 354.907 111.712C354.907 107.935 357.969 104.872 361.747 104.872C365.525 104.872 368.587 107.935 368.587 111.712Z" fill="white"/>
<path d="M300.587 111.712C300.587 115.49 297.525 118.553 293.747 118.553C289.969 118.553 286.907 115.49 286.907 111.712C286.907 107.935 289.969 104.872 293.747 104.872C297.525 104.872 300.587 107.935 300.587 111.712Z" fill="white"/>
<defs>
<linearGradient id="paint0_linear_170_103" x1="721.143" y1="166.173" x2="-66.8291" y2="166.172" gradientUnits="userSpaceOnUse">
<stop offset="0.5" stop-color="white"/>
<stop offset="1" stop-color="#DDDDDD"/>
</linearGradient>
<linearGradient id="paint1_linear_170_103" x1="381.928" y1="297.735" x2="205.533" y2="-234.303" gradientUnits="userSpaceOnUse">
<stop stop-color="white"/>
<stop offset="1" stop-color="#333333"/>
</linearGradient>
<linearGradient id="paint2_linear_170_103" x1="-567.451" y1="172.35" x2="946.263" y2="172.35" gradientUnits="userSpaceOnUse">
<stop offset="0.336538" stop-color="#FFDB65"/>
<stop offset="1" stop-color="#FF9340"/>
</linearGradient>
<linearGradient id="paint3_linear_170_103" x1="-0.205671" y1="149.481" x2="711.106" y2="140.753" gradientUnits="userSpaceOnUse">
<stop offset="0.445323" stop-color="white"/>
<stop offset="1" stop-color="#DDDDDD"/>
</linearGradient>
<linearGradient id="paint4_linear_170_103" x1="650.705" y1="146.011" x2="-25.7924" y2="161.173" gradientUnits="userSpaceOnUse">
<stop offset="0.476813" stop-color="white"/>
<stop offset="1" stop-color="#DDDDDD"/>
</linearGradient>
<linearGradient id="paint5_linear_170_103" x1="811.896" y1="135.938" x2="-203.978" y2="135.938" gradientUnits="userSpaceOnUse">
<stop offset="0.473088" stop-color="white"/>
<stop offset="1" stop-color="#DDDDDD"/>
</linearGradient>
<linearGradient id="paint6_linear_170_103" x1="324.737" y1="-67.5845" x2="161.273" y2="371.001" gradientUnits="userSpaceOnUse">
<stop offset="0.253308" stop-color="white"/>
<stop offset="1" stop-color="#999999"/>
</linearGradient>
<linearGradient id="paint7_linear_170_103" x1="-237.584" y1="618.848" x2="666.69" y2="-680.268" gradientUnits="userSpaceOnUse">
<stop offset="0.284031" stop-color="#28C3B9"/>
<stop offset="0.646689" stop-color="#00FF5D"/>
</linearGradient>
<linearGradient id="paint8_linear_170_103" x1="-221.931" y1="3.72125" x2="251.615" y2="1746.65" gradientUnits="userSpaceOnUse">
<stop offset="0.101096" stop-color="#83FF90"/>
<stop offset="0.617494" stop-color="#437D49"/>
</linearGradient>
<linearGradient id="paint9_linear_170_103" x1="1897.76" y1="-590.23" x2="1345.82" y2="1381.88" gradientUnits="userSpaceOnUse">
<stop offset="0.506493" stop-color="#83FF90"/>
<stop offset="0.846413" stop-color="#45814B"/>
<stop offset="1" stop-color="#437D49"/>
</linearGradient>
</defs>
</svg>
