<svg width="651" height="436" viewBox="0 0 651 436" fill="none" xmlns="http://www.w3.org/2000/svg">
<path d="M156 285.5C108.473 287.665 74.9157 274.45 13 342C85 477.5 530.383 460.743 650.213 325.968C623.946 288.326 573.681 277.111 539.609 291.517C573.18 265.585 644.619 255.083 629.002 142.954C538.7 110.124 482.531 173.846 464.721 200.623C475.817 169.259 491.382 141.554 463.896 83.6729C414.801 85.1608 391.389 114.3 378.653 146.329C350.695 70.9939 291.947 7.30849 231.476 0.807739C195.724 55.8582 207.895 128.495 245.308 165.897C192.891 135.358 140.555 46.3421 0.372677 127.34C5.43413 264.655 110.94 276.301 156 285.5Z" fill="white"/>
<path d="M271.309 333.05L304.081 203.806H381.124L421.074 333.05H271.309Z" fill="url(#paint0_linear_173_91)"/>
<path d="M386.218 196.901L430.437 339.956H262.434L298.708 196.901H386.218ZM304.081 203.806L271.309 333.05H421.074L381.124 203.806H304.081Z" fill="url(#paint1_linear_173_91)"/>
<path d="M314.437 235.58L322.586 252.46C322.92 253.151 323.62 253.591 324.388 253.591H362.518C363.306 253.591 364.021 253.128 364.343 252.409L371.911 235.528C372.504 234.205 371.536 232.71 370.086 232.71H316.238C314.764 232.71 313.796 234.252 314.437 235.58Z" fill="url(#paint2_linear_173_91)"/>
<path d="M424.429 263.928L381.621 205.606L395.902 250.685C317.145 223.912 322.906 275.925 339.74 284.449C417.949 324.05 442.31 287.449 424.429 263.928Z" fill="url(#paint3_linear_173_91)"/>
<path d="M375.038 207.692L385.358 240.267C371.228 236.527 359.81 235.509 350.703 236.612C338.808 238.053 330.5 243.209 326.021 250.832C321.677 258.223 321.637 266.756 323.718 273.775C325.756 280.649 330.228 287.373 336.621 290.61C376.226 310.664 404.594 312.739 421.322 303.976C429.93 299.467 435.192 292.142 436.555 283.73C437.888 275.498 435.379 266.967 429.996 259.842L387.187 201.52L375.038 207.692ZM424.429 263.928C442.17 287.265 418.327 323.479 341.563 285.363L339.74 284.449C322.906 275.925 317.145 223.912 395.902 250.685L381.621 205.606L424.429 263.928Z" fill="#BBBBBB"/>
<path d="M263.665 259.968L303.627 206.326L291.386 250.336C371.309 214.966 377.186 267.125 349.708 281.569C269.105 323.937 245.785 283.489 263.665 259.968Z" fill="url(#paint4_linear_173_91)"/>
<path d="M310.279 208.177L301.79 238.697C316.259 233.464 328.315 231.235 338.167 231.358C350.926 231.518 360.612 235.679 366.294 243.06C371.952 250.41 372.622 259.652 369.996 267.751C367.373 275.844 361.377 283.237 352.921 287.682C312.13 309.123 283.246 311.071 266.348 301.483C257.691 296.572 252.639 288.802 251.396 280.213C250.176 271.775 252.686 263.027 258.127 255.843L298.089 202.2L310.279 208.177ZM263.665 259.968C245.785 283.489 269.105 323.937 349.708 281.569C377.186 267.125 371.309 214.966 291.386 250.336L303.627 206.326L263.665 259.968Z" fill="#BBBBBB"/>
<path d="M423.556 138.668C423.556 181.628 387.14 216.454 342.218 216.454C297.296 216.454 260.88 181.628 260.88 138.668C260.88 95.7074 297.296 60.8814 342.218 60.8814C387.14 60.8814 423.556 95.7074 423.556 138.668Z" fill="url(#paint5_linear_173_91)"/>
<path d="M423.556 138.668C423.556 95.7074 387.14 60.8814 342.218 60.8814C297.296 60.8814 260.88 95.7074 260.88 138.668C260.88 181.628 297.296 216.454 342.218 216.454C387.14 216.454 423.556 181.628 423.556 138.668ZM430.462 138.668C430.462 185.729 390.66 223.359 342.218 223.359C293.776 223.359 253.975 185.729 253.975 138.668C253.975 91.6062 293.776 53.9762 342.218 53.9761C390.66 53.9761 430.462 91.6062 430.462 138.668Z" fill="url(#paint6_linear_173_91)"/>
<path d="M333.612 232.967C325.574 229.453 311.729 218.209 320.655 201.342C330.949 204.768 336.159 213.132 338.395 219.73C336.664 209.153 337.434 193.731 349.809 187.606C359.122 193.804 356.513 208.634 352.636 219.095C356.216 214.049 363.515 208.863 376.804 208.689C368.454 224.023 360.607 231.263 357.728 232.967H333.612Z" fill="url(#paint7_linear_173_91)"/>
<path d="M370.91 163.057C365.664 169.942 360.138 174.324 354.516 176.68C348.868 179.048 343.331 179.282 338.254 178.197C328.262 176.062 320.166 168.871 315.736 163.057L321.228 158.872C325.078 163.925 331.887 169.774 339.697 171.443C343.521 172.26 347.611 172.087 351.847 170.311C356.11 168.525 360.727 165.028 365.418 158.872L370.91 163.057Z" fill="#333333"/>
<path d="M333.602 123.883C333.602 136.41 323.609 146.564 311.282 146.564C298.954 146.564 288.961 136.41 288.961 123.883C288.961 111.357 298.954 101.203 311.282 101.203C323.609 101.203 333.602 111.357 333.602 123.883Z" fill="#5BA7FF"/>
<path d="M399.125 123.883C399.125 136.41 389.131 146.564 376.804 146.564C364.476 146.564 354.483 136.41 354.483 123.883C354.483 111.357 364.476 101.203 376.804 101.203C389.131 101.203 399.125 111.357 399.125 123.883Z" fill="#5BA7FF"/>
<path d="M311.282 153.044C311.282 160.997 304.834 167.445 296.881 167.445C288.928 167.445 282.481 160.997 282.481 153.044C282.481 145.091 288.928 138.644 296.881 138.644C304.834 138.644 311.282 145.091 311.282 153.044Z" fill="#C9FFCF"/>
<path d="M405.605 153.044C405.605 160.997 399.158 167.445 391.204 167.445C383.251 167.445 376.804 160.997 376.804 153.044C376.804 145.091 383.251 138.644 391.204 138.644C399.158 138.644 405.605 145.091 405.605 153.044Z" fill="#C9FFCF"/>
<path d="M372.923 71.5318C360.52 61.403 354.874 30.9609 381.189 17.7618C398.543 40.9282 383.815 63.1311 372.923 71.5318Z" fill="#83FF90"/>
<path d="M386.716 13.6215C396.791 27.0715 397.728 40.719 394.258 52.1848C390.897 63.2873 383.52 72.0799 377.141 77.0001L372.8 80.3479L368.555 76.8809C360.429 70.2451 355.251 57.8983 355.635 45.5832C356.034 32.7361 362.484 19.4183 378.092 11.5894L383.254 9.00006L386.716 13.6215ZM381.189 17.7618C355.286 30.7546 360.351 60.4555 372.346 71.0421L372.923 71.5318C383.815 63.1311 398.543 40.9282 381.189 17.7618Z" fill="url(#paint8_linear_173_91)"/>
<path d="M379.167 74.5973C380.839 66.6817 391.251 48.8079 416.905 59.5062C406.33 80.9576 384.444 75.712 379.167 74.5973Z" fill="#83FF90"/>
<path d="M423.098 62.5598C416.682 75.5757 406.481 80.7911 397.174 82.3278C388.276 83.7971 380.287 81.8917 377.739 81.3535L370.982 79.9268L372.41 73.1698C373.532 67.8603 377.361 59.7 385.142 54.3733C393.414 48.71 404.964 47.0444 419.563 53.1322L426.351 55.9638L423.098 62.5598ZM416.905 59.5062C391.652 48.9752 381.168 66.1295 379.251 74.2186L379.167 74.5973C384.444 75.712 406.33 80.9576 416.905 59.5062Z" fill="url(#paint9_linear_173_91)"/>
<path d="M364.68 119.84C364.68 123.618 361.618 126.68 357.84 126.68C354.062 126.68 351 123.618 351 119.84C351 116.062 354.062 113 357.84 113C361.618 113 364.68 116.062 364.68 119.84Z" fill="white"/>
<path d="M296.68 119.84C296.68 123.618 293.618 126.68 289.84 126.68C286.062 126.68 283 123.618 283 119.84C283 116.062 286.062 113 289.84 113C293.618 113 296.68 116.062 296.68 119.84Z" fill="white"/>
<defs>
<linearGradient id="paint0_linear_173_91" x1="720.559" y1="217.653" x2="-66.7474" y2="217.653" gradientUnits="userSpaceOnUse">
<stop offset="0.5" stop-color="white"/>
<stop offset="1" stop-color="#DDDDDD"/>
</linearGradient>
<linearGradient id="paint1_linear_173_91" x1="381.63" y1="390.24" x2="98.1397" y2="-261.018" gradientUnits="userSpaceOnUse">
<stop stop-color="white"/>
<stop offset="1" stop-color="#333333"/>
</linearGradient>
<linearGradient id="paint2_linear_173_91" x1="-566.946" y1="225.757" x2="945.488" y2="225.757" gradientUnits="userSpaceOnUse">
<stop offset="0.336538" stop-color="#FFDB65"/>
<stop offset="1" stop-color="#FF9340"/>
</linearGradient>
<linearGradient id="paint3_linear_173_91" x1="-0.180244" y1="195.756" x2="710.575" y2="189.114" gradientUnits="userSpaceOnUse">
<stop offset="0.445323" stop-color="white"/>
<stop offset="1" stop-color="#DDDDDD"/>
</linearGradient>
<linearGradient id="paint4_linear_173_91" x1="650.18" y1="191.205" x2="-25.8879" y2="202.746" gradientUnits="userSpaceOnUse">
<stop offset="0.476813" stop-color="white"/>
<stop offset="1" stop-color="#DDDDDD"/>
</linearGradient>
<linearGradient id="paint5_linear_173_91" x1="811.235" y1="177.99" x2="-203.781" y2="177.99" gradientUnits="userSpaceOnUse">
<stop offset="0.473088" stop-color="white"/>
<stop offset="1" stop-color="#DDDDDD"/>
</linearGradient>
<linearGradient id="paint6_linear_173_91" x1="324.488" y1="-88.9956" x2="65.7849" y2="439.679" gradientUnits="userSpaceOnUse">
<stop offset="0.253308" stop-color="white"/>
<stop offset="1" stop-color="#999999"/>
</linearGradient>
<linearGradient id="paint7_linear_173_91" x1="-237.358" y1="811.483" x2="1022.49" y2="-567.071" gradientUnits="userSpaceOnUse">
<stop offset="0.284031" stop-color="#28C3B9"/>
<stop offset="0.646689" stop-color="#00FF5D"/>
</linearGradient>
<linearGradient id="paint8_linear_173_91" x1="-221.718" y1="4.54504" x2="555.23" y2="2182.59" gradientUnits="userSpaceOnUse">
<stop offset="0.101096" stop-color="#83FF90"/>
<stop offset="0.617494" stop-color="#437D49"/>
</linearGradient>
<linearGradient id="paint9_linear_173_91" x1="1896.18" y1="-774.615" x2="993.032" y2="1683.22" gradientUnits="userSpaceOnUse">
<stop offset="0.506493" stop-color="#83FF90"/>
<stop offset="0.846413" stop-color="#45814B"/>
<stop offset="1" stop-color="#437D49"/>
</linearGradient>
</defs>
</svg>
