<svg width="249" height="235" viewBox="0 0 249 235" fill="none" xmlns="http://www.w3.org/2000/svg">
<path d="M243.415 156.563C249.932 157.751 249.998 167.071 243.499 168.352L182.502 180.376C179.675 180.933 177.643 183.423 177.663 186.305L177.962 228.394C177.998 233.431 172.186 236.268 168.237 233.14L119.914 194.86C118.537 193.77 116.751 193.337 115.028 193.677L44.4177 207.596C38.2881 208.804 34.6236 201.008 39.4651 197.059L74.6869 168.334C77.6578 165.911 77.6254 161.361 74.6204 158.981L38.9937 130.759C34.0965 126.88 37.6498 119.032 43.796 120.153L114.597 133.067C116.325 133.382 118.104 132.924 119.465 131.814L167.239 92.8514C171.143 89.6676 176.996 92.4211 177.031 97.4584L177.331 139.547C177.351 142.43 179.418 144.89 182.254 145.407L243.415 156.563Z" fill="white"/>
<path d="M172.133 162.7L143.263 102.721L85.3092 100.2L108.359 189.455L172.133 162.7Z" fill="url(#paint0_linear_190_214)"/>
<path d="M145.828 98.8291L177.564 164.76L105.643 194.933L80.0849 95.969L145.828 98.8291ZM111.075 183.977L166.703 160.64L140.697 106.613L90.5336 104.431L111.075 183.977Z" fill="url(#paint1_linear_190_214)"/>
<path d="M174.614 68.935C172.968 100.375 146.146 124.528 114.706 122.881C83.2654 121.235 59.1129 94.4126 60.7595 62.9724C62.406 31.5322 89.2281 7.3797 120.668 9.02624C152.108 10.6728 176.261 37.4949 174.614 68.935Z" fill="url(#paint2_linear_190_214)"/>
<path d="M166.625 68.517C168.041 41.4892 147.278 18.431 120.25 17.0153C93.2223 15.5998 70.164 36.3632 68.7485 63.3912C67.3332 90.4189 88.0966 113.476 115.124 114.892L114.706 122.881L113.97 122.838C83.1343 120.831 59.5007 94.585 60.7258 63.7083L60.7595 62.9724C62.406 31.5322 89.2281 7.3797 120.668 9.02624L121.404 9.06964C152.484 11.0923 176.248 37.7405 174.614 68.935L174.571 69.6704C172.548 100.751 145.9 124.515 114.706 122.881L115.124 114.892C142.152 116.307 165.209 95.5446 166.625 68.517Z" fill="url(#paint3_linear_190_214)"/>
<path d="M55.3925 108.325C54.6014 127.765 42.4989 143.057 28.3608 142.482C14.2227 141.907 3.40286 125.681 4.19399 106.241C4.98512 86.8015 17.0876 71.5088 31.2257 72.0842C45.3638 72.6595 56.1836 88.8851 55.3925 108.325Z" fill="url(#paint4_linear_190_214)"/>
<path d="M47.3994 108C47.7337 99.7861 45.5897 92.575 42.2513 87.5687C38.9076 82.5546 34.7816 80.2355 30.9001 80.0775C27.0186 79.9197 22.7176 81.8957 18.9776 86.6216C15.2436 91.34 12.5216 98.3531 12.1874 106.567C11.8532 114.781 13.9963 121.991 17.3345 126.997C20.6781 132.011 24.8043 134.33 28.6858 134.489L28.3608 142.482C14.4438 141.916 3.74233 126.184 4.16578 107.151L4.19399 106.241C4.98512 86.8015 17.0876 71.5088 31.2257 72.0842C45.3638 72.6595 56.1836 88.8851 55.3925 108.325L55.347 109.233C54.2224 128.239 42.2779 143.048 28.3608 142.482L28.6858 134.489C32.5673 134.647 36.8681 132.67 40.6082 127.944C44.3422 123.226 47.0651 116.214 47.3994 108Z" fill="url(#paint5_linear_190_214)"/>
<path d="M155.136 72.3378C155.136 82.4195 146.963 90.5924 136.881 90.5924C126.8 90.5924 118.627 82.4195 118.627 72.3378C118.627 62.2561 126.8 54.0833 136.881 54.0833C146.963 54.0833 155.136 62.2561 155.136 72.3378Z" fill="#5BA7FF"/>
<path d="M108.379 60.1681C108.379 70.2498 100.206 78.4227 90.124 78.4227C80.0423 78.4227 71.8695 70.2498 71.8695 60.1681C71.8695 50.0864 80.0423 41.9135 90.124 41.9135C100.206 41.9135 108.379 50.0864 108.379 60.1681Z" fill="#5BA7FF"/>
<path d="M115.151 88.5396C117.036 95.542 115.518 102.039 111.761 103.05C108.004 104.062 103.429 99.2055 101.544 92.2031C99.6588 85.2007 101.176 78.704 104.934 77.6924C108.691 76.6807 113.265 81.5372 115.151 88.5396Z" fill="#333333"/>
<path d="M86.4737 75.4766C86.4737 80.5707 82.3441 84.7003 77.25 84.7003C72.156 84.7003 68.0264 80.5707 68.0264 75.4766C68.0264 70.3825 72.156 66.253 77.25 66.253C82.3441 66.253 86.4737 70.3825 86.4737 75.4766Z" fill="url(#paint6_linear_190_214)"/>
<path d="M142.839 90.8489C142.839 95.943 138.709 100.073 133.615 100.073C128.521 100.073 124.391 95.943 124.391 90.8489C124.391 85.7548 128.521 81.6252 133.615 81.6252C138.709 81.6252 142.839 85.7548 142.839 90.8489Z" fill="url(#paint7_linear_190_214)"/>
<path d="M143.177 34.4836C138.315 25.4524 142.425 6.052 161.231 4.68056C165.832 22.6404 151.68 32.1773 143.177 34.4836Z" fill="#83FF90"/>
<path d="M165.516 3.58286C168.187 14.01 165.401 22.3172 160.54 28.2543C155.834 34.0033 149.315 37.4019 144.335 38.7527L140.946 39.6716L139.282 36.5804C136.097 30.6637 136.054 22.0884 139.295 14.8929C142.677 7.3867 149.754 1.08272 160.909 0.269182L164.598 0L165.516 3.58286ZM161.231 4.68056C142.718 6.03059 138.447 24.8503 142.955 34.0526L143.177 34.4836C151.68 32.1773 165.832 22.6404 161.231 4.68056Z" fill="url(#paint8_linear_190_214)"/>
<path d="M146.122 37.8263C149.049 33.5504 159.587 25.5196 172.153 38.1313C160.643 48.2398 148.973 39.7778 146.122 37.8263Z" fill="#83FF90"/>
<path d="M175.071 41.4547C168.087 47.5881 160.773 48.1781 154.888 46.8097C149.262 45.5013 144.999 42.418 143.623 41.4759L139.973 38.9775L142.472 35.3276C144.436 32.4595 148.7 28.5668 154.609 27.3184C160.892 25.9912 168.136 27.8325 175.286 35.0091L178.611 38.3467L175.071 41.4547ZM172.153 38.1313C159.784 25.7168 149.379 33.3041 146.265 37.6229L146.122 37.8263C148.973 39.7778 160.643 48.2398 172.153 38.1313Z" fill="url(#paint9_linear_190_214)"/>
<path d="M57.4121 64.8361C60.6569 57.8509 70.9304 59.0358 72.4997 66.5763L78.2797 94.3479C78.9823 97.7241 81.7694 100.27 85.1952 100.665L113.543 103.935C121.28 104.827 123.31 115.125 116.491 118.887L91.9675 132.415C88.8934 134.111 87.2841 137.613 87.9995 141.05L93.6845 168.366C95.2607 175.939 86.2398 181.117 80.495 175.937L59.1356 156.677C56.6027 154.393 52.9004 153.966 49.9141 155.613L24.7309 169.505C17.9577 173.242 10.3525 166.146 13.6113 159.13L25.3655 133.826C26.8445 130.642 26.0748 126.865 23.4674 124.514L2.6675 105.759C-3.11641 100.543 1.20465 90.9778 8.94146 91.8701L37.2897 95.1398C40.7155 95.5349 44.009 93.6903 45.4618 90.5627L57.4121 64.8361Z" fill="url(#paint10_linear_190_214)"/>
<path d="M57.4121 64.8361C60.6569 57.8509 70.9304 59.0358 72.4997 66.5763L78.2797 94.3479C78.9605 97.6186 81.5976 100.11 84.8764 100.622L85.1952 100.665L113.543 103.935C121.28 104.827 123.31 115.125 116.491 118.887L91.9675 132.415L91.6834 132.579C88.795 134.329 87.3067 137.72 87.9995 141.05L93.6845 168.366C95.2361 175.82 86.5196 180.954 80.7671 176.172L80.495 175.937L59.1356 156.677C56.6027 154.393 52.9004 153.966 49.9141 155.613L24.7309 169.505L24.4132 169.672C17.8291 172.967 10.6356 166.255 13.4664 159.459L13.6113 159.13L25.3655 133.826C26.7982 130.741 26.1206 127.101 23.7064 124.739L23.4674 124.514L2.6675 105.759C-3.02583 100.625 1.07194 91.276 8.58085 91.8359L8.94146 91.8701L37.2897 95.1398L37.6107 95.1704C40.8129 95.4103 43.852 93.7083 45.3203 90.8524L45.4618 90.5627L57.4121 64.8361ZM52.7172 93.9332C49.8115 100.188 43.2246 103.878 36.3731 103.088L8.02492 99.8179L28.8245 118.573C34.0392 123.275 35.5789 130.828 32.621 137.196L20.8669 162.5L46.0502 148.608C52.0228 145.314 59.4277 146.168 64.4934 150.736L85.8521 169.995L80.1671 142.68C78.7366 135.805 81.9553 128.801 88.1034 125.41L112.626 111.883L84.2782 108.613C77.4268 107.822 71.8526 102.73 70.4473 95.9781L64.6675 68.2062L52.7172 93.9332Z" fill="url(#paint11_linear_190_214)"/>
<path d="M125.576 160.434C116.082 175.982 99.207 182.982 87.8855 176.069C76.5639 169.155 75.0825 150.947 84.5767 135.398C94.071 119.85 110.945 112.85 122.267 119.763C133.589 126.677 135.07 144.885 125.576 160.434Z" fill="url(#paint12_linear_190_214)"/>
<path d="M118.748 156.264C122.708 149.778 124.201 143.008 123.754 137.509C123.306 132 121.04 128.388 118.098 126.591C115.156 124.795 110.907 124.429 105.802 126.547C100.705 128.661 95.365 133.082 91.4044 139.568C87.4439 146.054 85.9509 152.824 86.3983 158.323C86.8465 163.832 89.1132 167.445 92.055 169.241L87.8855 176.069L87.3621 175.736C76.6924 168.701 75.2741 151.269 84.1396 136.129L84.5767 135.398C94.071 119.85 110.945 112.85 122.267 119.763L122.79 120.095C133.632 127.244 134.922 145.128 125.576 160.434L125.125 161.156C115.555 176.197 99.0301 182.874 87.8855 176.069L92.055 169.241C94.9967 171.037 99.2457 171.403 104.35 169.285C109.447 167.171 114.787 162.75 118.748 156.264Z" fill="url(#paint13_linear_190_214)"/>
<path d="M91.4462 57.8114C91.8808 56.9784 93.1201 57.1502 93.3118 58.0699L93.8335 60.5731C93.9197 60.9868 94.2566 61.3016 94.6752 61.3596L97.2174 61.7119C98.1995 61.848 98.4061 63.1767 97.5116 63.6046L95.4488 64.5914C95.0334 64.7901 94.8074 65.2467 94.9013 65.6975L95.366 67.9272C95.562 68.8679 94.4479 69.5167 93.7265 68.882L91.6701 67.0727C91.3693 66.808 90.9395 66.7484 90.578 66.9213L88.1071 68.1033C87.2403 68.518 86.3446 67.5906 86.789 66.7387L87.8425 64.7193C88.0555 64.3111 87.9622 63.8102 87.6165 63.506L85.8997 61.9955C85.1552 61.3405 85.7153 60.1181 86.6975 60.2542L89.2397 60.6064C89.6583 60.6644 90.0681 60.4531 90.2636 60.0784L91.4462 57.8114Z" fill="#FFFB8B"/>
<path d="M131.786 68.1799C132.44 67.5055 133.579 68.0236 133.5 68.9598L133.286 71.5079C133.251 71.9289 133.484 72.3268 133.868 72.5018L136.204 73.5646C137.107 73.9752 136.926 75.3075 135.947 75.4625L133.688 75.8199C133.233 75.8919 132.886 76.2651 132.848 76.7239L132.657 78.9936C132.577 79.9511 131.324 80.2551 130.813 79.441L129.359 77.1203C129.146 76.7808 128.751 76.6012 128.355 76.6638L125.65 77.0919C124.701 77.2421 124.106 76.0977 124.775 75.408L126.361 73.773C126.682 73.4424 126.735 72.9357 126.491 72.5456L125.276 70.6081C124.749 69.768 125.635 68.7561 126.537 69.1667L128.873 70.2295C129.258 70.4045 129.711 70.3188 130.005 70.0155L131.786 68.1799Z" fill="#FFFB8B"/>
<defs>
<linearGradient id="paint0_linear_190_214" x1="299.752" y1="156.893" x2="28.8019" y2="-56.5507" gradientUnits="userSpaceOnUse">
<stop offset="0.342218" stop-color="white"/>
<stop offset="1" stop-color="#999999"/>
</linearGradient>
<linearGradient id="paint1_linear_190_214" x1="252.849" y1="201.745" x2="44.5944" y2="-25.6447" gradientUnits="userSpaceOnUse">
<stop offset="0.288461" stop-color="white"/>
<stop offset="1" stop-color="#999999"/>
</linearGradient>
<linearGradient id="paint2_linear_190_214" x1="179.303" y1="15.5784" x2="63.4646" y2="207.886" gradientUnits="userSpaceOnUse">
<stop offset="0.649038" stop-color="white"/>
<stop offset="1" stop-color="#FFFB8B"/>
</linearGradient>
<linearGradient id="paint3_linear_190_214" x1="185.358" y1="-1.20749" x2="60.6083" y2="205.893" gradientUnits="userSpaceOnUse">
<stop stop-color="white"/>
<stop offset="1" stop-color="#999999"/>
</linearGradient>
<linearGradient id="paint4_linear_190_214" x1="177.322" y1="139.078" x2="91.2953" y2="-45.3119" gradientUnits="userSpaceOnUse">
<stop stop-color="#FFFB8B"/>
<stop offset="1" stop-color="white"/>
</linearGradient>
<linearGradient id="paint5_linear_190_214" x1="175.472" y1="212.723" x2="128.825" y2="12.432" gradientUnits="userSpaceOnUse">
<stop stop-color="#999999"/>
<stop offset="1" stop-color="white"/>
</linearGradient>
<linearGradient id="paint6_linear_190_214" x1="181.074" y1="-8.18588e-06" x2="37.5544" y2="215.365" gradientUnits="userSpaceOnUse">
<stop stop-color="#C9FFCF"/>
<stop offset="1" stop-color="#FFFB8B"/>
</linearGradient>
<linearGradient id="paint7_linear_190_214" x1="181.074" y1="-8.18588e-06" x2="37.5544" y2="215.365" gradientUnits="userSpaceOnUse">
<stop stop-color="#C9FFCF"/>
<stop offset="1" stop-color="#FFFB8B"/>
</linearGradient>
<linearGradient id="paint8_linear_190_214" x1="-84.8726" y1="2.01472" x2="446.576" y2="1058.14" gradientUnits="userSpaceOnUse">
<stop offset="0.101096" stop-color="#83FF90"/>
<stop offset="0.617494" stop-color="#437D49"/>
</linearGradient>
<linearGradient id="paint9_linear_190_214" x1="724.488" y1="-418.018" x2="110.041" y2="767.365" gradientUnits="userSpaceOnUse">
<stop offset="0.506493" stop-color="#83FF90"/>
<stop offset="0.846413" stop-color="#45814B"/>
<stop offset="1" stop-color="#437D49"/>
</linearGradient>
<linearGradient id="paint10_linear_190_214" x1="200.039" y1="29.2149" x2="55.5085" y2="211.096" gradientUnits="userSpaceOnUse">
<stop stop-color="#FFFEDB"/>
<stop offset="1" stop-color="#FFF600"/>
</linearGradient>
<linearGradient id="paint11_linear_190_214" x1="54.2392" y1="233.105" x2="149.518" y2="-20.5073" gradientUnits="userSpaceOnUse">
<stop stop-color="#FFE100"/>
<stop offset="1" stop-color="#FFF9CB"/>
</linearGradient>
<linearGradient id="paint12_linear_190_214" x1="244.632" y1="84.003" x2="-5.34445" y2="112.675" gradientUnits="userSpaceOnUse">
<stop offset="0.295874" stop-color="white"/>
<stop offset="1" stop-color="#FFFB8B"/>
</linearGradient>
<linearGradient id="paint13_linear_190_214" x1="53.8665" y1="188.082" x2="159.016" y2="-46.2105" gradientUnits="userSpaceOnUse">
<stop stop-color="#999999"/>
<stop offset="1" stop-color="white"/>
</linearGradient>
</defs>
</svg>
