<svg width="394" height="422" viewBox="0 0 394 422" fill="none" xmlns="http://www.w3.org/2000/svg">
<path d="M0.603263 6.00596C0.336728 2.29928 4.02412 -0.367713 7.44287 1.08923C74.8699 29.824 195.697 100.921 195.7 180.646C196.03 100.919 318.876 30.3157 386.544 1.85862C389.97 0.418001 393.646 3.1005 393.364 6.80606C390.514 44.288 383.916 149.358 375.629 334.105C375.489 337.206 372.546 339.481 369.496 338.9C271.071 320.18 212.762 384.872 195.7 422C195.773 404.15 195.749 377.068 195.7 345.812V422C178.791 384.803 121.576 319.868 23.1075 338.185C20.0554 338.753 17.1209 336.466 16.9945 333.365C9.46275 148.587 3.29921 43.4982 0.603263 6.00596Z" fill="#333333"/>
</svg>
