<svg width="638" height="398" viewBox="0 0 638 398" fill="none" xmlns="http://www.w3.org/2000/svg">
<path d="M0 196C0 172.804 18.804 154 42 154H630C634.418 154 638 157.582 638 162V356C638 379.196 619.196 398 596 398H8.00001C3.58174 398 0 394.418 0 390V196Z" fill="white"/>
<path d="M116.005 151H212.005V320H116.005V151Z" fill="url(#paint0_linear_256_192)"/>
<path d="M212.005 151V320H116.005V151H212.005ZM124.005 312H204.005V159H124.005V312Z" fill="url(#paint1_linear_256_192)"/>
<path d="M464 202H545V346H464V202Z" fill="url(#paint2_linear_256_192)"/>
<path d="M545 202V346H464V202H545ZM472 338H537V210H472V338Z" fill="url(#paint3_linear_256_192)"/>
<path d="M173.005 289H464.005V346H173.005V289Z" fill="url(#paint4_linear_256_192)"/>
<path d="M464.005 289V346H173.005V289H464.005ZM181.005 338H456.005V297H181.005V338Z" fill="url(#paint5_linear_256_192)"/>
<path d="M570.004 146.5C570.004 188.197 536.426 222 495.004 222C453.583 222 420.004 188.197 420.004 146.5C420.004 104.803 453.583 71 495.004 71C536.426 71 570.004 104.803 570.004 146.5Z" fill="white"/>
<path d="M562.004 146.5C562.004 109.171 531.957 79 495.004 79C458.051 79 428.004 109.171 428.004 146.5C428.004 183.829 458.051 214 495.004 214V222C453.583 222 420.004 188.197 420.004 146.5C420.004 104.803 453.583 71 495.004 71C536.426 71 570.004 104.803 570.004 146.5C570.004 188.197 536.426 222 495.004 222V214C531.957 214 562.004 183.829 562.004 146.5Z" fill="url(#paint6_linear_256_192)"/>
<path d="M570.999 144.494L518.999 133V161.506C527.403 163.498 547.993 168.586 563.121 173C568.163 164.172 570.474 150.318 570.999 144.494Z" fill="#EEEEEE"/>
<path d="M516.495 129.881C517.44 129.122 518.679 128.833 519.863 129.095L571.863 140.589C573.828 141.023 575.164 142.849 574.983 144.854C574.445 150.819 572.077 165.385 566.594 174.984C565.676 176.591 563.776 177.358 562 176.84C546.971 172.455 526.459 167.385 518.077 165.397C516.273 164.97 514.999 163.359 514.999 161.506V133C514.999 131.788 515.549 130.64 516.495 129.881ZM522.999 158.352C531.937 160.511 547.939 164.515 561.054 168.243C564.016 161.739 565.787 153.289 566.597 147.617L522.999 137.979V158.352Z" fill="#DDDDDD"/>
<path d="M527 174.5C527 184.717 518.717 193 508.5 193C498.283 193 490 184.717 490 174.5C490 164.283 498.283 156 508.5 156C518.717 156 527 164.283 527 174.5Z" fill="#83FF90"/>
<path d="M441.814 156L424 172.493C438.551 233.85 529.902 229.271 554 189.074L501.541 172.493L441.814 156Z" fill="#999999"/>
<path d="M439.291 152.896C440.291 152.083 441.626 151.799 442.878 152.145L502.606 168.638L502.747 168.68L555.205 185.26C556.372 185.629 557.306 186.512 557.74 187.656C558.174 188.801 558.06 190.08 557.431 191.13C544.353 212.945 513.751 224.408 485.203 222.86C456.418 221.3 427.926 206.382 420.108 173.416C419.776 172.012 420.224 170.539 421.282 169.559L439.096 153.064L439.291 152.896ZM428.468 173.807C435.93 200.67 459.792 213.471 485.637 214.872C510.295 216.209 535.235 207.058 547.641 191.259L500.391 176.324L442.897 160.448L428.468 173.807Z" fill="url(#paint7_linear_256_192)"/>
<path d="M503.999 142C503.999 153.598 494.597 163 482.999 163C471.401 163 461.999 153.598 461.999 142C461.999 130.402 471.401 121 482.999 121C494.597 121 503.999 130.402 503.999 142Z" fill="#5BA7FF"/>
<path d="M443.311 141.756C443.191 152.524 438.392 161.202 432.594 161.137C426.795 161.072 422.192 152.29 422.312 141.521C422.433 130.752 427.231 122.075 433.03 122.14C438.828 122.204 443.431 130.987 443.311 141.756Z" fill="#5BA7FF"/>
<path d="M430.335 140.202C430.051 143.219 428.345 145.526 426.526 145.354C424.706 145.183 423.461 142.598 423.745 139.581C424.029 136.564 425.735 134.257 427.554 134.429C429.374 134.6 430.619 137.185 430.335 140.202Z" fill="white"/>
<path d="M475.999 142C475.999 145.866 472.865 149 468.999 149C465.133 149 461.999 145.866 461.999 142C461.999 138.134 465.133 135 468.999 135C472.865 135 475.999 138.134 475.999 142Z" fill="white"/>
<path d="M518.513 112.18L426.661 112.2C417.245 112.202 416.541 122.908 417.24 135.832C420.237 191.301 436.977 174.836 440.261 151.715C441.103 145.784 450.082 145.334 451.454 154.215C453.033 164.434 461.854 173.114 470.695 173.095L520.684 172.989L518.513 112.18Z" fill="url(#paint8_linear_256_192)" fill-opacity="0.5"/>
<path d="M518.513 108.179L518.713 108.185C520.775 108.286 522.437 109.951 522.511 112.037L524.682 172.846C524.721 173.929 524.318 174.982 523.566 175.763C522.814 176.544 521.777 176.987 520.693 176.989L470.703 177.095C464.977 177.107 459.603 174.33 455.549 170.348C451.473 166.345 448.432 160.85 447.501 154.825C447.26 153.264 446.735 152.414 446.331 151.984C445.928 151.556 445.536 151.418 445.255 151.39C444.951 151.359 444.718 151.445 444.574 151.553C444.463 151.637 444.287 151.818 444.221 152.278C443.35 158.412 441.573 164.239 439.236 168.658C438.071 170.86 436.682 172.874 435.059 174.395C433.456 175.897 431.302 177.206 428.701 177.244C425.979 177.284 423.702 175.925 421.981 173.983C420.311 172.098 418.968 169.474 417.859 166.275C415.636 159.856 414.002 150.049 413.245 136.047C412.898 129.629 412.836 123.074 414.32 118.039C415.082 115.454 416.343 112.937 418.485 111.065C420.701 109.127 423.491 108.2 426.66 108.2L518.513 108.179ZM426.661 116.2C425.122 116.2 424.293 116.612 423.751 117.087C423.134 117.626 422.498 118.594 421.994 120.301C420.948 123.851 420.882 129.111 421.234 135.616C421.976 149.349 423.558 158.284 425.419 163.656C426.353 166.353 427.269 167.887 427.969 168.677C428.291 169.04 428.504 169.182 428.607 169.233C428.721 169.197 429.049 169.063 429.589 168.557C430.354 167.84 431.251 166.643 432.164 164.917C433.982 161.48 435.529 156.579 436.3 151.153C437.043 145.917 441.554 142.973 446.063 143.431C450.762 143.908 454.504 147.754 455.408 153.603C456.056 157.798 458.214 161.753 461.154 164.64C464.115 167.548 467.571 169.102 470.686 169.095L516.539 168.998L514.653 116.18L426.661 116.2Z" fill="#333333"/>
<path d="M239.005 171.5C239.005 213.197 205.202 247 163.505 247C121.807 247 88.0046 213.197 88.0046 171.5C88.0046 129.803 121.807 96 163.505 96C205.202 96 239.005 129.803 239.005 171.5Z" fill="white"/>
<path d="M231.005 171.5C231.005 134.221 200.784 104 163.505 104C126.225 104 96.0046 134.221 96.0046 171.5C96.0046 208.779 126.225 239 163.505 239V247C121.807 247 88.0046 213.197 88.0046 171.5C88.0046 129.803 121.807 96 163.505 96C205.202 96 239.005 129.803 239.005 171.5C239.005 213.197 205.202 247 163.505 247V239C200.784 239 231.005 208.779 231.005 171.5Z" fill="url(#paint9_linear_256_192)"/>
<path d="M174.005 204.5C174.005 215.27 165.274 224 154.505 224C143.735 224 135.005 215.27 135.005 204.5C135.005 193.73 143.735 185 154.505 185C165.274 185 174.005 193.73 174.005 204.5Z" fill="#5BA7FF"/>
<path d="M225.005 170.5C225.005 181.27 216.274 190 205.505 190C194.735 190 186.005 181.27 186.005 170.5C186.005 159.73 194.735 151 205.505 151C216.274 151 225.005 159.73 225.005 170.5Z" fill="#5BA7FF"/>
<path d="M207.005 209.5C207.005 213.642 204.094 217 200.505 217C196.915 217 194.005 213.642 194.005 209.5C194.005 205.358 196.915 202 200.505 202C204.094 202 207.005 205.358 207.005 209.5Z" fill="black"/>
<path d="M151.005 202.5C151.005 206.09 148.095 209 144.505 209C140.915 209 138.005 206.09 138.005 202.5C138.005 198.91 140.915 196 144.505 196C148.095 196 151.005 198.91 151.005 202.5Z" fill="white"/>
<path d="M200 169C200 172.314 197.314 175 194 175C190.686 175 188 172.314 188 169C188 165.686 190.686 163 194 163C197.314 163 200 165.686 200 169Z" fill="white"/>
<path d="M134.005 255H509.005V297H134.005V255Z" fill="url(#paint10_linear_256_192)"/>
<path d="M509.005 255V297H134.005V255H509.005ZM142.005 289H501.005V263H142.005V289Z" fill="url(#paint11_linear_256_192)"/>
<path d="M251.005 9H273.005V255H251.005V9Z" fill="#FFFA93"/>
<path d="M184.005 231.5C184.005 237.299 175.722 242 165.505 242C155.287 242 147.005 237.299 147.005 231.5C147.005 225.701 155.287 221 165.505 221C175.722 221 184.005 225.701 184.005 231.5Z" fill="#83FF90"/>
<path d="M227.278 195.44C223.948 194.982 222.208 187.635 223.391 179.029C224.574 170.423 228.232 163.818 231.562 164.275C234.891 164.733 236.631 172.08 235.449 180.686C234.266 189.292 230.608 195.897 227.278 195.44Z" fill="#83FF90"/>
<path d="M267.763 246.525C260.839 263.683 244.432 273.235 231.116 267.862C217.8 262.488 212.618 244.223 219.541 227.066C226.465 209.909 242.872 200.356 256.188 205.73C269.504 211.103 274.687 229.368 267.763 246.525Z" fill="white"/>
<path d="M260.344 243.532C266.365 228.612 260.774 216.207 253.195 213.148C245.615 210.09 232.98 215.14 226.96 230.06C220.939 244.979 226.53 257.384 234.109 260.443L231.116 267.862C217.8 262.488 212.618 244.223 219.541 227.066C226.465 209.909 242.872 200.356 256.188 205.73C269.504 211.103 274.687 229.368 267.763 246.525C260.839 263.683 244.432 273.235 231.116 267.862L234.109 260.443C241.689 263.501 254.324 258.451 260.344 243.532Z" fill="url(#paint12_linear_256_192)"/>
<path d="M283.005 114C283.005 133.882 271.588 150 257.505 150C243.422 150 232.005 133.882 232.005 114C232.005 94.1177 243.422 78 257.505 78C271.588 78 283.005 94.1177 283.005 114Z" fill="white"/>
<path d="M275.005 114C275.005 105.519 272.557 98.1792 269.008 93.168C265.444 88.1376 261.262 86 257.505 86C253.747 86 249.565 88.1376 246.002 93.168C242.452 98.1792 240.005 105.519 240.005 114C240.005 122.481 242.452 129.821 246.002 134.832C249.565 139.862 253.747 142 257.505 142V150C243.422 150 232.005 133.882 232.005 114C232.005 94.1177 243.422 78 257.505 78C271.588 78 283.005 94.1177 283.005 114C283.005 133.882 271.588 150 257.505 150V142C261.262 142 265.444 139.862 269.008 134.832C272.557 129.821 275.005 122.481 275.005 114Z" fill="url(#paint13_linear_256_192)"/>
<path d="M277.005 226C277.005 217.716 283.721 211 292.005 211H346.005C354.289 211 361.005 217.716 361.005 226V259C361.005 267.284 354.289 274 346.005 274H292.005C283.721 274 277.005 267.284 277.005 259V226Z" fill="url(#paint14_linear_256_192)"/>
<path d="M346.005 266V274H292.005V266H346.005ZM353.005 259V226C353.005 222.134 349.871 219 346.005 219H292.005C288.139 219 285.005 222.134 285.005 226V259C285.005 262.866 288.139 266 292.005 266V274L291.618 273.995C283.641 273.793 277.212 267.364 277.01 259.387L277.005 259V226C277.005 217.716 283.721 211 292.005 211H346.005C354.289 211 361.005 217.716 361.005 226V259C361.005 267.155 354.497 273.79 346.392 273.995L346.005 274V266C349.871 266 353.005 262.866 353.005 259Z" fill="url(#paint15_linear_256_192)"/>
<path d="M296 220C296 217.791 297.791 216 300 216H338C340.209 216 342 217.791 342 220C342 222.209 340.209 224 338 224H300C297.791 224 296 222.209 296 220Z" fill="#432504"/>
<path d="M313 28.4002H321V219.4H313V28.4002Z" fill="url(#paint16_linear_256_192)"/>
<path d="M320 197.4C320 175.309 337.909 157.4 360 157.4H395C397.209 157.4 399 159.191 399 161.4V177.4C399 199.492 381.091 217.4 359 217.4H324C321.791 217.4 320 215.609 320 213.4V197.4Z" fill="url(#paint17_linear_256_192)"/>
<path d="M320 144.4C320 122.309 337.909 104.4 360 104.4H381C383.209 104.4 385 106.191 385 108.4V113.4C385 135.492 367.091 153.4 345 153.4H324C321.791 153.4 320 151.609 320 149.4V144.4Z" fill="url(#paint18_linear_256_192)"/>
<path d="M317 170.4C317 148.309 299.091 130.4 277 130.4H242C239.791 130.4 238 132.191 238 134.4V150.4C238 172.492 255.909 190.4 278 190.4H313C315.209 190.4 317 188.609 317 186.4V170.4Z" fill="url(#paint19_linear_256_192)"/>
<path d="M317 114.4C317 92.3088 299.091 74.4002 277 74.4002H256C253.791 74.4002 252 76.191 252 78.4002V83.4002C252 105.492 269.909 123.4 292 123.4H313C315.209 123.4 317 121.609 317 119.4V114.4Z" fill="url(#paint20_linear_256_192)"/>
<path d="M320 91.4002C320 69.3088 337.909 51.4002 360 51.4002H377C379.209 51.4002 381 53.191 381 55.4002V57.4002C381 79.4916 363.091 97.4002 341 97.4002H324C321.791 97.4002 320 95.6093 320 93.4002V91.4002Z" fill="url(#paint21_linear_256_192)"/>
<path d="M311.999 71.2C294.326 57.9444 290.746 32.8722 304.001 15.1996L314.202 1.60009C315.528 -0.167159 318.035 -0.52522 319.802 0.800341L321.402 2.00041C339.075 15.256 342.655 40.3282 329.4 58.0008L319.199 71.6003C317.873 73.3676 315.366 73.7256 313.599 72.4001L311.999 71.2Z" fill="url(#paint22_linear_256_192)"/>
<path d="M436.004 199C436.004 216.673 423.916 231 409.004 231C394.093 231 382.004 216.673 382.004 199C382.004 181.327 394.093 167 409.004 167C423.916 167 436.004 181.327 436.004 199Z" fill="white"/>
<path d="M435.004 199C435.004 181.713 423.211 168 409.004 168C394.797 168 383.004 181.713 383.004 199C383.004 216.287 394.797 230 409.004 230V231C394.093 231 382.004 216.673 382.004 199C382.004 181.327 394.093 167 409.004 167C423.916 167 436.004 181.327 436.004 199C436.004 216.673 423.916 231 409.004 231V230C423.211 230 435.004 216.287 435.004 199Z" fill="#EEEEEE"/>
<path d="M402.345 148.874L423.747 212.578L416.164 215.126L394.762 151.422L402.345 148.874Z" fill="#111111"/>
<path d="M410.504 260.5L369.004 182H425.004L460.004 260.5H410.504Z" fill="#894900"/>
<path d="M427.6 178L466.167 264.5H408.094L362.365 178H427.6ZM412.913 256.5H453.841L422.409 186H375.643L412.913 256.5Z" fill="url(#paint23_linear_256_192)"/>
<path d="M487.962 255.881C481.985 272.513 462.335 280.675 444.072 274.112C425.809 267.549 415.849 248.746 421.826 232.115C427.803 215.483 447.453 207.32 465.716 213.883C483.979 220.446 493.939 239.249 487.962 255.881Z" fill="white"/>
<path d="M480.433 253.175C484.683 241.349 477.794 226.724 463.011 221.412C448.227 216.099 433.605 222.994 429.355 234.82C425.105 246.647 431.995 261.271 446.778 266.584L444.072 274.112L443.223 273.796C425.502 266.962 415.943 248.487 421.826 232.115C427.803 215.483 447.453 207.32 465.716 213.883L466.565 214.2C484.286 221.033 493.846 239.509 487.962 255.881C481.985 272.513 462.335 280.675 444.072 274.112L446.778 266.584C461.561 271.896 476.183 265.002 480.433 253.175Z" fill="url(#paint24_linear_256_192)"/>
<path d="M138.964 143.766C131.603 157.987 102.974 169.775 84.6434 146.739C103.744 124.99 128.502 134.835 138.964 143.766Z" fill="#83FF90"/>
<path d="M84.6434 146.739C102.687 169.415 130.711 158.347 138.603 144.431L138.964 143.766C128.502 134.835 103.744 124.99 84.6434 146.739Z" fill="url(#paint25_linear_256_192)"/>
<path d="M110.67 95.3621C124.728 98.9637 131.93 107.874 135.349 116.665C138.617 125.071 138.396 133.281 138.394 135.885L138.388 142.79L131.481 142.783C126.055 142.778 117.281 140.709 110.468 134.191C103.224 127.26 99.2175 116.3 102.172 100.762L103.546 93.5361L110.67 95.3621Z" fill="url(#paint26_linear_256_192)"/>
<path d="M444.414 76.2508C456.828 102.436 486.634 98.0315 497.485 86.2745L497.987 85.7091C489.83 74.6329 467.96 59.4158 444.414 76.2508Z" fill="url(#paint27_linear_256_192)"/>
<path d="M470.856 40.5438C484.947 44.0121 492.233 52.8534 495.735 61.6117C499.083 69.9861 498.94 78.1981 498.962 80.8018L499.021 87.7073L492.115 87.7653C486.689 87.8114 477.896 85.826 471.021 79.3726C463.712 72.5113 459.602 61.5895 462.409 46.0236L463.715 38.7854L470.856 40.5438Z" fill="url(#paint28_linear_256_192)"/>
<defs>
<linearGradient id="paint0_linear_256_192" x1="199.341" y1="334.414" x2="220.415" y2="17.6526" gradientUnits="userSpaceOnUse">
<stop stop-color="white"/>
<stop offset="1" stop-color="#999999"/>
</linearGradient>
<linearGradient id="paint1_linear_256_192" x1="43.1642" y1="443.923" x2="81.0898" y2="121.559" gradientUnits="userSpaceOnUse">
<stop offset="0.316597" stop-color="white"/>
<stop offset="1" stop-color="#999999"/>
</linearGradient>
<linearGradient id="paint2_linear_256_192" x1="368.844" y1="482.05" x2="361.938" y2="11.7298" gradientUnits="userSpaceOnUse">
<stop offset="0.567356" stop-color="white"/>
<stop offset="1" stop-color="#999999"/>
</linearGradient>
<linearGradient id="paint3_linear_256_192" x1="389.85" y1="428.403" x2="387.187" y2="-55.3715" gradientUnits="userSpaceOnUse">
<stop offset="0.163185" stop-color="white"/>
<stop offset="1" stop-color="#999999"/>
</linearGradient>
<linearGradient id="paint4_linear_256_192" x1="0" y1="199" x2="638" y2="199" gradientUnits="userSpaceOnUse">
<stop stop-color="#D9D9D9"/>
<stop offset="1" stop-color="#737373"/>
</linearGradient>
<linearGradient id="paint5_linear_256_192" x1="0" y1="199" x2="638" y2="199" gradientUnits="userSpaceOnUse">
<stop stop-color="#999999"/>
<stop offset="1" stop-color="#333333"/>
</linearGradient>
<linearGradient id="paint6_linear_256_192" x1="44.66" y1="206.907" x2="621.158" y2="80.2003" gradientUnits="userSpaceOnUse">
<stop stop-color="#EEEEEE"/>
<stop offset="1" stop-color="#999999"/>
</linearGradient>
<linearGradient id="paint7_linear_256_192" x1="118.274" y1="204.971" x2="558.727" y2="265.964" gradientUnits="userSpaceOnUse">
<stop stop-color="#CCCCCC"/>
<stop offset="1" stop-color="#666666"/>
</linearGradient>
<linearGradient id="paint8_linear_256_192" x1="36.4072" y1="250.333" x2="600.164" y2="248.35" gradientUnits="userSpaceOnUse">
<stop/>
<stop offset="1" stop-color="#333333"/>
</linearGradient>
<linearGradient id="paint9_linear_256_192" x1="12.6755" y1="125.199" x2="619.182" y2="334.214" gradientUnits="userSpaceOnUse">
<stop stop-color="#EEEEEE"/>
<stop offset="1" stop-color="#888888"/>
</linearGradient>
<linearGradient id="paint10_linear_256_192" x1="0" y1="199" x2="638" y2="199" gradientUnits="userSpaceOnUse">
<stop stop-color="#D9D9D9"/>
<stop offset="1" stop-color="#737373"/>
</linearGradient>
<linearGradient id="paint11_linear_256_192" x1="0" y1="199" x2="638" y2="199" gradientUnits="userSpaceOnUse">
<stop stop-color="#999999"/>
<stop offset="1" stop-color="#333333"/>
</linearGradient>
<linearGradient id="paint12_linear_256_192" x1="115.961" y1="275.211" x2="384.147" y2="-33.1107" gradientUnits="userSpaceOnUse">
<stop stop-color="#EEEEEE"/>
<stop offset="1" stop-color="#999999"/>
</linearGradient>
<linearGradient id="paint13_linear_256_192" x1="-3.82918e-06" y1="279.153" x2="438.025" y2="-70.7125" gradientUnits="userSpaceOnUse">
<stop stop-color="#EEEEEE"/>
<stop offset="1" stop-color="#999999"/>
</linearGradient>
<linearGradient id="paint14_linear_256_192" x1="72.1186" y1="202.159" x2="584.797" y2="202.159" gradientUnits="userSpaceOnUse">
<stop stop-color="#D4AC64"/>
<stop offset="1" stop-color="#6E5934"/>
</linearGradient>
<linearGradient id="paint15_linear_256_192" x1="-0.036159" y1="202.159" x2="637.964" y2="202.159" gradientUnits="userSpaceOnUse">
<stop stop-color="#A57C2F"/>
<stop offset="1" stop-color="#3F2F12"/>
</linearGradient>
<linearGradient id="paint16_linear_256_192" x1="320.981" y1="-45.5319" x2="320.981" y2="414.326" gradientUnits="userSpaceOnUse">
<stop stop-color="#8CC3FA"/>
<stop offset="1" stop-color="#83FF90"/>
</linearGradient>
<linearGradient id="paint17_linear_256_192" x1="320.981" y1="-45.5319" x2="320.981" y2="414.326" gradientUnits="userSpaceOnUse">
<stop stop-color="#8CC3FA"/>
<stop offset="1" stop-color="#83FF90"/>
</linearGradient>
<linearGradient id="paint18_linear_256_192" x1="320.981" y1="-45.5319" x2="320.981" y2="414.326" gradientUnits="userSpaceOnUse">
<stop stop-color="#8CC3FA"/>
<stop offset="1" stop-color="#83FF90"/>
</linearGradient>
<linearGradient id="paint19_linear_256_192" x1="320.981" y1="-45.5319" x2="320.981" y2="414.326" gradientUnits="userSpaceOnUse">
<stop stop-color="#8CC3FA"/>
<stop offset="1" stop-color="#83FF90"/>
</linearGradient>
<linearGradient id="paint20_linear_256_192" x1="320.981" y1="-45.5319" x2="320.981" y2="414.326" gradientUnits="userSpaceOnUse">
<stop stop-color="#8CC3FA"/>
<stop offset="1" stop-color="#83FF90"/>
</linearGradient>
<linearGradient id="paint21_linear_256_192" x1="320.981" y1="-45.5319" x2="320.981" y2="414.326" gradientUnits="userSpaceOnUse">
<stop stop-color="#8CC3FA"/>
<stop offset="1" stop-color="#83FF90"/>
</linearGradient>
<linearGradient id="paint22_linear_256_192" x1="320.981" y1="-45.5319" x2="320.981" y2="414.326" gradientUnits="userSpaceOnUse">
<stop stop-color="#8CC3FA"/>
<stop offset="1" stop-color="#83FF90"/>
</linearGradient>
<linearGradient id="paint23_linear_256_192" x1="440.317" y1="119.63" x2="126.951" y2="127.838" gradientUnits="userSpaceOnUse">
<stop stop-color="#773F00"/>
<stop offset="1" stop-color="#BF6D10"/>
</linearGradient>
<linearGradient id="paint24_linear_256_192" x1="59.9062" y1="236.361" x2="569.961" y2="20.5781" gradientUnits="userSpaceOnUse">
<stop stop-color="white"/>
<stop offset="1" stop-color="#999999"/>
</linearGradient>
<linearGradient id="paint25_linear_256_192" x1="434.344" y1="-24.0515" x2="414.323" y2="801.462" gradientUnits="userSpaceOnUse">
<stop offset="0.101096" stop-color="#83FF90"/>
<stop offset="1" stop-color="#568D5C"/>
</linearGradient>
<linearGradient id="paint26_linear_256_192" x1="458.977" y1="35.6613" x2="534.76" y2="68.484" gradientUnits="userSpaceOnUse">
<stop offset="0.341346" stop-color="#83FF90"/>
<stop offset="1" stop-color="#437D49"/>
</linearGradient>
<linearGradient id="paint27_linear_256_192" x1="434.344" y1="-24.0515" x2="414.323" y2="801.462" gradientUnits="userSpaceOnUse">
<stop offset="0.101096" stop-color="#83FF90"/>
<stop offset="1" stop-color="#568D5C"/>
</linearGradient>
<linearGradient id="paint28_linear_256_192" x1="458.977" y1="35.6613" x2="534.76" y2="68.484" gradientUnits="userSpaceOnUse">
<stop offset="0.341346" stop-color="#83FF90"/>
<stop offset="1" stop-color="#437D49"/>
</linearGradient>
</defs>
</svg>
